<svg xmlns="http://www.w3.org/2000/svg" width="272" height="66.821" viewBox="0 0 272 66.821">
  <g id="midtakseetlogo" transform="translate(-272.596 -224.412)">
    <path id="Path_27451" data-name="Path 27451" d="M272.6,271.212h50.321v-46.8H272.6Zm6.964-35.631,13.143,12.3L279.56,259.972Zm5.772,28.6,12.5-11.5,12.291,11.5Zm30.621-4.134-30.561-28.6h30.561Z" transform="translate(0)" fill="#00844c"/>
    <text id="_" data-name=" " transform="translate(487.083 286.568)" fill="#050605" font-size="1" font-family="ITCAvantGardeStd-Bk, ITC Avant Garde Gothic Std"><tspan x="0" y="0"> </tspan></text>
    <text id="MI" transform="translate(486.045 288.233)" fill="#00844c" font-size="10" font-family="SinhalaMN-Bold, Sinhala MN" font-weight="700"><tspan x="0" y="0" letter-spacing="-0.019em">M</tspan><tspan y="0">I</tspan></text>
    <text id="D" transform="translate(500.982 288.233)" fill="#00844c" font-size="10" font-family="SinhalaMN-Bold, Sinhala MN" font-weight="700"><tspan x="0" y="0">D</tspan></text>
    <text id="B" transform="translate(510.645 288.233)" fill="#050605" font-size="10" font-family="SinhalaMN-Bold, Sinhala MN" font-weight="700"><tspan x="0" y="0">B</tspan></text>
    <text id="A" transform="translate(519.091 288.233)" fill="#050605" font-size="10" font-family="SinhalaMN-Bold, Sinhala MN" font-weight="700"><tspan x="0" y="0">A</tspan></text>
    <text id="N" transform="translate(527.66 288.233)" fill="#050605" font-size="10" font-family="SinhalaMN-Bold, Sinhala MN" font-weight="700"><tspan x="0" y="0">N</tspan></text>
    <text id="K" transform="translate(536.57 288.233)" fill="#050605" font-size="10" font-family="SinhalaMN-Bold, Sinhala MN" font-weight="700"><tspan x="0" y="0">K</tspan></text>
    <g id="Group_23628" data-name="Group 23628" transform="translate(331.992 224.412)">
      <g id="Group_23630" data-name="Group 23630">
        <path id="Path_27452" data-name="Path 27452" d="M623.693,250.738a2.735,2.735,0,0,0,2.718-2.746v-13.9h1.433a2.245,2.245,0,0,0,1.783-.88,2.287,2.287,0,0,0-1.883-3.692h-1.333v-1.948a2.718,2.718,0,1,0-5.435,0v1.948h-1.47a2.287,2.287,0,0,0-1.883,3.691,2.242,2.242,0,0,0,1.784.88h1.569v13.9a2.735,2.735,0,0,0,2.717,2.746" transform="translate(-417.502 -224.511)" fill="#671c73"/>
        <path id="Path_27453" data-name="Path 27453" d="M515.13,224.658a2.947,2.947,0,0,0-2.929,2.959V247.85a2.929,2.929,0,1,0,5.858,0V242.4l5.875,7.385a2.692,2.692,0,0,0,4.557-.543,2.735,2.735,0,0,0-.351-2.9l-4.524-5.578a1.472,1.472,0,0,1,0-1.847l4.524-5.578a2.735,2.735,0,0,0,.352-2.9,2.693,2.693,0,0,0-4.557-.543l-5.875,7.386v-9.66a2.948,2.948,0,0,0-2.929-2.959" transform="translate(-391.457 -224.471)" fill="#671c73"/>
        <path id="Path_27454" data-name="Path 27454" d="M543.084,252.145c4.843,0,8.226-2.923,8.226-7.107,0-4.382-3.6-5.388-7.087-6.361-1.544-.462-3.312-1.135-3.312-2.265a1.7,1.7,0,0,1,1.95-1.594,2.106,2.106,0,0,1,1.8.7,2.39,2.39,0,0,0,1.934.88,2.534,2.534,0,0,0,2.436-1.792,2.5,2.5,0,0,0-.9-2.854,9.088,9.088,0,0,0-5.2-1.545c-4.457,0-7.818,2.958-7.818,6.882,0,3.242,3,4.694,4.783,5.271.825.321,1.537.581,2.152.807,2.453.9,3.469,1.271,3.469,2.547,0,1.139-1.2,1.82-2.361,1.82a2.59,2.59,0,0,1-2.065-.886,2.474,2.474,0,0,0-1.931-1.034h-.4a2.555,2.555,0,0,0-1.692,4.446,9.228,9.228,0,0,0,6.009,2.084" transform="translate(-397.144 -225.806)" fill="#671c73"/>
        <path id="Path_27455" data-name="Path 27455" d="M469.28,250.825h.449a2.689,2.689,0,0,0,2.672-2.7V230.056h3.483a2.7,2.7,0,0,0,0-5.4H463.05a2.7,2.7,0,0,0,0,5.4h3.558v18.069a2.689,2.689,0,0,0,2.672,2.7" transform="translate(-378.595 -224.471)" fill="#671c73"/>
        <path id="Path_27456" data-name="Path 27456" d="M491.12,230.192a11,11,0,0,0,0,22,10.812,10.812,0,0,0,5.289-1.388l.321-.181.2.31a2.762,2.762,0,0,0,5.079-1.54v-8.222l-.013-.234a11,11,0,0,0-10.878-10.75m0,16.862a5.861,5.861,0,1,1,5.8-5.86,5.838,5.838,0,0,1-5.8,5.86" transform="translate(-383.522 -225.802)" fill="#671c73"/>
        <path id="Path_27457" data-name="Path 27457" d="M579.474,239.846a9.766,9.766,0,0,0-1.906-5.364,10.432,10.432,0,0,0-7.161-4.3,10.286,10.286,0,0,0-1.471-.107A11.2,11.2,0,0,0,558.2,243.258a10.4,10.4,0,0,0,10.385,8.541h.114c.624-.005,1.747-.012,2.924-.019,1.466-.009,3.018-.018,3.794-.027a2.479,2.479,0,0,0-.026-4.958h-.1c-1.439.011-5.262.036-5.8.094a7.546,7.546,0,0,1-.807.045,5.636,5.636,0,0,1-4.555-2.167,4.32,4.32,0,0,1-.314-.465c-.05-.082-.1-.171-.167-.269l-.4-.611.724-.009,12.684-.146a2.83,2.83,0,0,0,2.031-.885,2.893,2.893,0,0,0,.8-2.076q-.006-.231-.017-.463m-5.937-1.422-6.833.079-2.652.03-.75.008.414-.631a5.937,5.937,0,0,1,4.653-2.944c.194-.015.385-.024.571-.024a5.586,5.586,0,0,1,4.925,2.861l.395.611Z" transform="translate(-402.821 -225.774)" fill="#671c73"/>
        <path id="Path_27458" data-name="Path 27458" d="M610.091,239.846a9.764,9.764,0,0,0-1.906-5.364,10.432,10.432,0,0,0-7.161-4.3,10.276,10.276,0,0,0-1.471-.107,11.2,11.2,0,0,0-10.734,13.184A10.4,10.4,0,0,0,599.2,251.8h.113l2.033-.017c1.141-.01,2.357-.02,3.2-.029a2.479,2.479,0,0,0-.026-4.958c-2.439.017-4,.051-4.415.095a7.57,7.57,0,0,1-.808.045,5.637,5.637,0,0,1-4.555-2.167,4.3,4.3,0,0,1-.315-.467c-.05-.081-.1-.169-.166-.267l-.4-.611.723-.009,12.685-.146a2.83,2.83,0,0,0,2.031-.885,2.888,2.888,0,0,0,.8-2.076c0-.154-.009-.308-.017-.463m-5.936-1.422-6.845.079-2.64.03-.75.008.414-.631a5.936,5.936,0,0,1,4.652-2.944c.195-.015.385-.024.571-.024a5.585,5.585,0,0,1,4.924,2.861l.4.611Z" transform="translate(-410.42 -225.774)" fill="#671c73"/>
        <path id="Path_27459" data-name="Path 27459" d="M475.567,287.3a1.8,1.8,0,1,0,1.765,1.783,1.776,1.776,0,0,0-1.765-1.783" transform="translate(-381.927 -239.537)" fill="#671c73"/>
        <path id="Path_27460" data-name="Path 27460" d="M470.685,287.3a1.8,1.8,0,0,0,0,3.592,1.8,1.8,0,0,0,1.791-1.81,1.768,1.768,0,0,0-1.791-1.783" transform="translate(-380.715 -239.537)" fill="#671c73"/>
        <path id="Path_27461" data-name="Path 27461" d="M514.336,269.169a1.782,1.782,0,1,0-1.765-1.783,1.776,1.776,0,0,0,1.765,1.783" transform="translate(-391.549 -234.319)" fill="#671c73"/>
        <path id="Path_27462" data-name="Path 27462" d="M519.209,269.169a1.782,1.782,0,1,0-1.792-1.783,1.776,1.776,0,0,0,1.792,1.783" transform="translate(-392.751 -234.319)" fill="#671c73"/>
        <path id="Path_27463" data-name="Path 27463" d="M486.9,270.143a1.611,1.611,0,0,0-1.6,1.618v4.917a1.125,1.125,0,0,1-1.118,1.129h-2.4v-2.228a5.395,5.395,0,1,0-10.789,0,5.6,5.6,0,0,0,.458,2.228h-4.767a1.112,1.112,0,0,1-1.118-1.129v-4.917a1.612,1.612,0,0,0-1.6-1.618,1.593,1.593,0,0,0-1.6,1.618v4.917a1.125,1.125,0,0,1-1.118,1.129,1.111,1.111,0,0,1-1.117-1.129v-4.917a1.612,1.612,0,0,0-1.6-1.618,1.593,1.593,0,0,0-1.6,1.618v4.917a1.125,1.125,0,0,1-1.118,1.129,1.112,1.112,0,0,1-1.119-1.129v-4.917a1.611,1.611,0,0,0-1.6-1.618,1.592,1.592,0,0,0-1.6,1.618v4.917a1.126,1.126,0,0,1-1.119,1.129h-2.2a1.112,1.112,0,0,1-1.119-1.129v-4.917a1.611,1.611,0,0,0-1.6-1.618,1.593,1.593,0,0,0-1.6,1.618v4.917a1.125,1.125,0,0,1-1.119,1.129h-73.01a1.125,1.125,0,0,1-1.118-1.129v-2.17a4.348,4.348,0,0,0-4.321-4.365h-6.689a5.985,5.985,0,0,0-2.478.54v-3.2a1.6,1.6,0,1,0-3.2,0v13.555h12.369a4.488,4.488,0,0,0,2.772-.943,4.231,4.231,0,0,0,2.667.943h73.01a4.3,4.3,0,0,0,2.717-.967,4.216,4.216,0,0,0,2.722.967h2.2a4.3,4.3,0,0,0,2.718-.967,4.212,4.212,0,0,0,2.722.967,4.3,4.3,0,0,0,2.716-.967,4.214,4.214,0,0,0,2.722.967,4.3,4.3,0,0,0,2.716-.967,4.216,4.216,0,0,0,2.722.967h17.5a4.348,4.348,0,0,0,4.321-4.365v-4.917a1.632,1.632,0,0,0-1.6-1.618m-12.71,5.436a2.192,2.192,0,1,1,4.385,0v2.228H476.37a2.206,2.206,0,0,1-2.178-2.228m-116.6-2.2h6.689a1.112,1.112,0,0,1,1.118,1.129v2.444a1.015,1.015,0,0,1-1.118.855H355.11v-2.228a2.355,2.355,0,0,1,2.478-2.2" transform="translate(-351.676 -234.382)" fill="#671c73"/>
        <path id="Path_27464" data-name="Path 27464" d="M530.513,269.2a1.8,1.8,0,0,0,0-3.592,1.8,1.8,0,0,0,0,3.592" transform="translate(-395.563 -234.319)" fill="#671c73"/>
        <path id="Path_27465" data-name="Path 27465" d="M525.658,269.2a1.8,1.8,0,1,0-1.792-1.81,1.769,1.769,0,0,0,1.792,1.81" transform="translate(-394.352 -234.319)" fill="#671c73"/>
        <path id="Path_27466" data-name="Path 27466" d="M610.669,276.732a8.182,8.182,0,0,0-1.008-2.332,10.513,10.513,0,0,0-1.368-1.65l-1-.949a4.1,4.1,0,0,0-3.525-1.182,4.873,4.873,0,0,0-.986.314,2.693,2.693,0,0,0-1.128.851,3.772,3.772,0,0,0-.61,1.218,9.4,9.4,0,0,0-.292,1.371,18.661,18.661,0,0,1-.582,3.359,2.251,2.251,0,0,1-2.506,1.868c.134,0,6.118,0-2.049,0h-1.858l.423-.907.047-6.167-3.414-.772v7.663H553.154a1.492,1.492,0,0,1-1.057-.35,1.751,1.751,0,0,1-.332-1.2v-2.126a14.176,14.176,0,0,0-.3-2.992,2.965,2.965,0,0,0-.8-1.044,3.528,3.528,0,0,0-1.159-.612,4.918,4.918,0,0,0-1.426-.2,6.729,6.729,0,0,0-2.031.3,16.678,16.678,0,0,0-1.722.634c-.1.058-.2.113-.3.169-.089.585-.172,1.171-.264,1.756a9.173,9.173,0,0,1,1.11-.425,5.386,5.386,0,0,1,1.544-.224,2.857,2.857,0,0,1,1.529.395,1.674,1.674,0,0,1,.775,1.306,2.894,2.894,0,0,1,.023.336v4.019a2.159,2.159,0,0,0,.018.255h-6.594l-1.057-.57-.891,3.266h52.353l.765-1.641,1.083,1.823h2.848v0h.569c.657,0,4.13.128,4.936-2.9q.972,1.164,1.681,1.938a7.1,7.1,0,0,0,1.345,1.185,3.16,3.16,0,0,0,1.26.5,3.572,3.572,0,0,0,1.4-.111,3.193,3.193,0,0,0,2.169-1.9,5.187,5.187,0,0,0,.377-1.835,8.025,8.025,0,0,0-.344-2.43m-2.834,1.777a2.3,2.3,0,0,1-.51.751,1.872,1.872,0,0,1-.708.433,1.215,1.215,0,0,1-.58.12,2.048,2.048,0,0,1-1.249-.459,14.219,14.219,0,0,1-1.393-1.186,9.541,9.541,0,0,0,.15-1.217,6.855,6.855,0,0,1,.182-1.211,3.229,3.229,0,0,1,.459-1.046,2.057,2.057,0,0,1,1.008-.731,1.592,1.592,0,0,1,.353-.107c.108-.017.232-.035.369-.05a1.687,1.687,0,0,1,1.062.285,2.219,2.219,0,0,1,.7,1.085,3.066,3.066,0,0,1,.23.824,4.854,4.854,0,0,1,.157,1.432,3.178,3.178,0,0,1-.235,1.077" transform="translate(-398.412 -235.514)" fill="#00844c"/>
        <path id="Path_27468" data-name="Path 27468" d="M0,0,2.719-.014,2.7,2.7l-2.719.014Z" transform="translate(191.636 49.563) rotate(-45)" fill="#00844c"/>
        <path id="Path_27469" data-name="Path 27469" d="M0,0,2.719-.014,2.7,2.7l-2.719.014Z" transform="translate(187.452 49.563) rotate(-45)" fill="#00844c"/>
        <path id="Path_27467" data-name="Path 27467" d="M351.6,224.412h6.254l9.066,18.079,8.934-18.079h6.124v26.467h-6.412V233.624L367,250.879h-2.47l-8.856-17.441v17.441H351.6Zm37.106,0h6.412V250.88h-6.412Zm13.113,0h9.512a24.932,24.932,0,0,1,6.755.863,15.66,15.66,0,0,1,5.282,2.534,11.846,11.846,0,0,1,3.443,4.089,11.973,11.973,0,0,1,1.233,5.522,13.314,13.314,0,0,1-1.037,5.242,12.048,12.048,0,0,1-3.036,4.275,14.59,14.59,0,0,1-4.924,2.88,19.55,19.55,0,0,1-6.691,1.062H401.819Zm6.438,23.76h3.416a9.081,9.081,0,0,0,3.561-.7,8.393,8.393,0,0,0,2.932-2.07,9.851,9.851,0,0,0,1.983-3.359,13.363,13.363,0,0,0,.722-4.567,12.064,12.064,0,0,0-.683-4.128,10.088,10.088,0,0,0-1.9-3.292,8.647,8.647,0,0,0-6.61-2.961h-3.416Z" transform="translate(-351.599 -224.412)" fill="#00844c"/>
      </g>
    </g>
    <text id="Powered_by" data-name="Powered by" transform="translate(449.382 287.035)" font-size="6" font-family="Poppins-Light, Poppins" font-weight="300"><tspan x="0" y="0">Powered by</tspan></text>
  </g>
</svg>
